<?xml version="1.0" encoding="utf-8"?><svg
    viewBox="0 0 40 40"
    xmlns="http://www.w3.org/2000/svg"
    xmlns:xlink="http://www.w3.org/1999/xlink">
    <style>
        :root > svg {
            display: none;
        }
        :root > svg:target {
            display: block;
        }
    </style>
    <svg fill="none" viewBox="0 0 24 24" id="icon-burger" xmlns="http://www.w3.org/2000/svg">
        <path d="M3 5h18v1.75H3V5Zm0 6.125h18v1.75H3v-1.75Zm0 6.125h18V19H3v-1.75Z" fill="#fff" /></svg
    ><svg fill="none" viewBox="0 0 24 24" id="icon-check" xmlns="http://www.w3.org/2000/svg">
        <path d="M11.002 16 6.76 11.758l1.414-1.415 2.828 2.829 5.657-5.657 1.415 1.414L11.002 16Z" fill="#fff" /></svg
    ><svg fill="none" viewBox="0 0 13 22" id="icon-chevron" xmlns="http://www.w3.org/2000/svg">
        <path d="m4.714 10.607 8.25 8.25-2.357 2.356L0 10.607 10.607 0l2.357 2.357-8.25 8.25Z" fill="#fff" /></svg
    ><svg fill="none" viewBox="0 0 24 24" id="icon-close" xmlns="http://www.w3.org/2000/svg">
        <path
            d="M10.586 12 2.793 4.207l1.414-1.414L12 10.586l7.793-7.793 1.414 1.414L13.414 12l7.793 7.793-1.414 1.414L12 13.414l-7.793 7.793-1.414-1.414L10.586 12Z"
            fill="#fff" /></svg
    ><svg fill="none" viewBox="0 0 13 13" id="icon-close-black" xmlns="http://www.w3.org/2000/svg">
        <path
            d="M6.364 4.95 11.314 0l1.414 1.414-4.95 4.95 4.95 4.95-1.414 1.414-4.95-4.95-4.95 4.95L0 11.314l4.95-4.95L0 1.414 1.414 0l4.95 4.95Z"
            fill="#000" /></svg
    ><svg fill="none" viewBox="0 0 24 24" id="icon-close-small" xmlns="http://www.w3.org/2000/svg">
        <path
            d="m11.999 10.586 4.95-4.95 1.414 1.415-4.95 4.95 4.95 4.95-1.415 1.414-4.95-4.95-4.949 4.95-1.414-1.415 4.95-4.95-4.95-4.95 1.414-1.413 4.95 4.95Z"
            fill="#fff" /></svg
    ><svg fill="none" viewBox="0 0 20 20" id="icon-comment" xmlns="http://www.w3.org/2000/svg">
        <path
            d="m20 10-4.714 4.714-1.179-1.178L17.643 10l-3.536-3.536 1.179-1.178L20 10ZM2.357 10l3.536 3.536-1.179 1.178L0 10l4.714-4.714 1.179 1.178L2.357 10Zm5.8 7.5H6.383l5.46-15h1.774l-5.46 15Z"
            fill="#000" /></svg
    ><svg fill="none" viewBox="0 0 24 24" id="icon-copy" xmlns="http://www.w3.org/2000/svg">
        <path
            d="M16.288 9.428A4.999 4.999 0 0 0 7 12a4.999 4.999 0 0 0 9.288 2.572l-1.715-1.028A3 3 0 1 1 12 9c1.093 0 2.05.584 2.573 1.457l1.715-1.03ZM22 12c0-5.52-4.48-10-10-10S2 6.48 2 12s4.48 10 10 10 10-4.48 10-10ZM4 12c0-4.42 3.58-8 8-8s8 3.58 8 8-3.58 8-8 8-8-3.58-8-8Z"
            fill="#fff" /></svg
    ><svg fill="none" viewBox="0 0 24 24" id="icon-email" xmlns="http://www.w3.org/2000/svg">
        <path
            d="M21 3a1 1 0 0 1 1 1v16.007a1 1 0 0 1-.992.993H2.992A.993.993 0 0 1 2 20.007V19h18V7.3l-8 7.2-10-9V4a1 1 0 0 1 1-1h18ZM8 15v2H0v-2h8Zm-3-5v2H0v-2h5Zm14.566-5H4.434L12 11.81 19.566 5Z"
            fill="currentColor" /></svg
    ><svg fill="none" viewBox="0 0 24 24" id="icon-genres" xmlns="http://www.w3.org/2000/svg">
        <path
            d="M7 11.5a4.5 4.5 0 1 1 0-9 4.5 4.5 0 0 1 0 9Zm0 10a4.5 4.5 0 1 1 0-9 4.5 4.5 0 0 1 0 9Zm10-10a4.5 4.5 0 1 1 0-9 4.5 4.5 0 0 1 0 9Zm0 10a4.5 4.5 0 1 1 0-9 4.5 4.5 0 0 1 0 9ZM7 9.5a2.5 2.5 0 1 0 0-5 2.5 2.5 0 0 0 0 5Zm0 10a2.5 2.5 0 1 0 0-5 2.5 2.5 0 0 0 0 5Zm10-10a2.5 2.5 0 1 0 0-5 2.5 2.5 0 0 0 0 5Zm0 10a2.5 2.5 0 1 0 0-5 2.5 2.5 0 0 0 0 5Z"
            fill="#fff" /></svg
    ><svg fill="none" viewBox="0 0 20 19" id="icon-heart" xmlns="http://www.w3.org/2000/svg">
        <path
            d="M14.5 0C17.538 0 20 2.5 20 6c0 7-7.5 11-10 12.5C7.5 17 0 13 0 6c0-3.5 2.5-6 5.5-6C7.36 0 9 1 10 2c1-1 2.64-2 4.5-2Zm-3.566 15.604a26.752 26.752 0 0 0 2.42-1.701C16.335 11.533 18 8.943 18 6c0-2.36-1.537-4-3.5-4-1.076 0-2.24.57-3.086 1.414L10 4.828 8.586 3.414C7.74 2.57 6.576 2 5.5 2 3.56 2 2 3.656 2 6c0 2.944 1.666 5.533 4.645 7.903.745.592 1.54 1.146 2.421 1.7.299.189.595.37.934.572.339-.202.635-.383.934-.571Z"
            fill="#fff" /></svg
    ><svg fill="none" viewBox="0 0 24 24" id="icon-heart-solid" xmlns="http://www.w3.org/2000/svg">
        <path
            d="M16.5 3C19.538 3 22 5.5 22 9c0 7-7.5 11-10 12.5C9.5 20 2 16 2 9c0-3.5 2.5-6 5.5-6C9.36 3 11 4 12 5c1-1 2.64-2 4.5-2Z"
            fill="#B4A9FF" /></svg
    ><svg fill="none" viewBox="0 0 24 24" id="icon-info" xmlns="http://www.w3.org/2000/svg">
        <path
            d="M12 22C6.477 22 2 17.523 2 12S6.477 2 12 2s10 4.477 10 10-4.477 10-10 10Zm0-2a8 8 0 1 0 0-16 8 8 0 0 0 0 16ZM11 7h2v2h-2V7Zm0 4h2v6h-2v-6Z"
            fill="#fff" /></svg
    ><svg fill="none" viewBox="0 0 24 24" id="icon-key" xmlns="http://www.w3.org/2000/svg">
        <path
            d="M12.917 13A6.002 6.002 0 0 1 1 12a6 6 0 0 1 11.917-1H23v2h-2v4h-2v-4h-2v4h-2v-4h-2.083ZM7 16a4 4 0 1 0 0-8 4 4 0 0 0 0 8Z"
            fill="currentColor" /></svg
    ><svg fill="none" viewBox="0 0 24 24" id="icon-mail-white" xmlns="http://www.w3.org/2000/svg">
        <path
            d="M21 3a1 1 0 0 1 1 1v16.007a1 1 0 0 1-.992.993H2.992A.993.993 0 0 1 2 20.007V19h18V7.3l-8 7.2-10-9V4a1 1 0 0 1 1-1h18ZM8 15v2H0v-2h8Zm-3-5v2H0v-2h5Zm14.566-5H4.434L12 11.81 19.566 5Z"
            fill="#fff" /></svg
    ><svg fill="none" viewBox="0 0 36 36" id="icon-ok" xmlns="http://www.w3.org/2000/svg">
        <rect x=".5" y=".5" width="35" height="35" rx="7.5" stroke="#fff" stroke-opacity=".8" />
        <path
            d="m19.919 22.262 2.654 2.562a1.309 1.309 0 0 1 0 1.898 1.425 1.425 0 0 1-1.966 0l-2.609-2.517-2.607 2.517a1.415 1.415 0 0 1-.984.393c-.355 0-.71-.131-.983-.393a1.31 1.31 0 0 1 0-1.898l2.654-2.562a9.087 9.087 0 0 1-2.757-1.102 1.315 1.315 0 0 1-.435-1.85c.408-.629 1.266-.818 1.917-.423a6.21 6.21 0 0 0 6.39 0c.651-.395 1.51-.206 1.918.422.41.627.214 1.456-.436 1.851-.858.52-1.79.89-2.756 1.102Z"
            fill="#fff"
            fill-opacity=".8" />
        <path
            fill-rule="evenodd"
            clip-rule="evenodd"
            d="M13.24 13.942c0 2.526 2.13 4.58 4.747 4.58 2.618 0 4.746-2.054 4.746-4.58 0-2.527-2.128-4.582-4.746-4.582-2.618 0-4.747 2.055-4.747 4.582Zm6.712 0c0-1.047-.882-1.897-1.965-1.897-1.083 0-1.966.85-1.966 1.896 0 1.046.883 1.897 1.966 1.897 1.084 0 1.965-.851 1.965-1.896Z"
            fill="#fff"
            fill-opacity=".8" /></svg
    ><svg fill="none" viewBox="0 0 40 40" id="icon-pause" xmlns="http://www.w3.org/2000/svg">
        <path d="M10 5h3.333v30H10V5Zm16.667 0H30v30h-3.333V5Z" fill="#000" /></svg
    ><svg fill="none" viewBox="0 0 24 24" id="icon-phone" xmlns="http://www.w3.org/2000/svg">
        <path
            d="M9.366 10.682a10.556 10.556 0 0 0 3.952 3.952l.884-1.238a1 1 0 0 1 1.294-.296 11.421 11.421 0 0 0 4.583 1.364 1 1 0 0 1 .921.997v4.462a1 1 0 0 1-.898.995c-.53.055-1.064.082-1.602.082C9.94 21 3 14.06 3 5.5c0-.538.027-1.072.082-1.602A1 1 0 0 1 4.077 3h4.462a1 1 0 0 1 .997.921A11.421 11.421 0 0 0 10.9 8.504a1 1 0 0 1-.296 1.294l-1.238.884Zm-2.522-.657 1.9-1.357A13.41 13.41 0 0 1 7.647 5H5.01c-.006.166-.009.333-.009.5C5 12.956 11.044 19 18.5 19c.167 0 .334-.003.5-.01v-2.637a13.41 13.41 0 0 1-3.668-1.097l-1.357 1.9a12.45 12.45 0 0 1-1.588-.75l-.058-.033a12.556 12.556 0 0 1-4.702-4.702l-.033-.058a12.441 12.441 0 0 1-.75-1.588Z"
            fill="#fff" /></svg
    ><svg fill="none" viewBox="0 0 40 40" id="icon-play" xmlns="http://www.w3.org/2000/svg">
        <path
            d="M10 33.66V6.34c0-1.309 1.44-2.107 2.55-1.413l21.855 13.66a1.667 1.667 0 0 1 0 2.826L12.55 35.073c-1.11.694-2.55-.104-2.55-1.413Z"
            fill="#000" /></svg
    ><svg fill="none" viewBox="0 0 24 24" id="icon-reset" xmlns="http://www.w3.org/2000/svg">
        <path
            d="M12 4a7.992 7.992 0 0 1 6.616 3.5H16v2h6v-6h-2V6a9.984 9.984 0 0 0-8-4C6.477 2 2 6.477 2 12h2a8 8 0 0 1 8-8Zm8 8a8 8 0 0 1-14.616 4.5H8v-2H2v6h2V18a9.984 9.984 0 0 0 8 4c5.523 0 10-4.477 10-10h-2Z"
            fill="#fff" /></svg
    ><svg fill="none" viewBox="0 0 24 24" id="icon-search" xmlns="http://www.w3.org/2000/svg">
        <path
            d="m18.031 16.617 4.283 4.282-1.415 1.415-4.282-4.283A8.96 8.96 0 0 1 11 20c-4.968 0-9-4.032-9-9s4.032-9 9-9 9 4.032 9 9a8.96 8.96 0 0 1-1.969 5.617Zm-2.006-.742A6.977 6.977 0 0 0 18 11c0-3.867-3.133-7-7-7s-7 3.133-7 7 3.133 7 7 7a6.977 6.977 0 0 0 4.875-1.975l.15-.15Z"
            fill="#fff" /></svg
    ><svg fill="none" viewBox="0 0 24 24" id="icon-send" xmlns="http://www.w3.org/2000/svg">
        <path
            d="M1.947 10.315c-.523-.174-.527-.455.01-.634l19.087-6.362c.528-.176.831.12.683.638l-5.453 19.086c-.151.529-.456.547-.679.044L12.001 15l6-8-8 6-8.054-2.685Z"
            fill="#fff" /></svg
    ><svg fill="none" viewBox="0 0 16 16" id="icon-star" xmlns="http://www.w3.org/2000/svg">
        <path
            d="m8.001 12.173-4.702 2.633 1.05-5.286L.393 5.861l5.35-.634L8.002.333l2.257 4.894 5.352.634-3.957 3.659 1.05 5.286-4.702-2.633Z"
            fill="#fff" /></svg
    ><svg fill="none" viewBox="0 0 36 36" id="icon-tg" xmlns="http://www.w3.org/2000/svg">
        <rect x=".5" y=".5" width="35" height="35" rx="7.5" stroke="#fff" stroke-opacity=".8" />
        <path
            d="M8.6 17.859c1.683-.927 3.563-1.701 5.318-2.48 3.02-1.273 6.053-2.525 9.116-3.69.596-.2 1.667-.393 1.772.49-.057 1.25-.294 2.493-.456 3.736-.412 2.733-.888 5.456-1.352 8.18-.16.908-1.296 1.378-2.024.797-1.748-1.18-3.509-2.35-5.235-3.558-.565-.574-.04-1.4.464-1.81 1.44-1.418 2.966-2.623 4.33-4.116.369-.888-.719-.14-1.077.09-1.971 1.358-3.894 2.8-5.972 3.993-1.061.584-2.298.085-3.359-.241-.951-.394-2.345-.79-1.525-1.391Z"
            fill="#fff"
            fill-opacity=".8" /></svg
    ><svg fill="none" viewBox="0 0 24 24" id="icon-user" xmlns="http://www.w3.org/2000/svg">
        <path
            d="M4 22a8 8 0 1 1 16 0h-2a6 6 0 0 0-12 0H4Zm8-9c-3.315 0-6-2.685-6-6s2.685-6 6-6 6 2.685 6 6-2.685 6-6 6Zm0-2c2.21 0 4-1.79 4-4s-1.79-4-4-4-4 1.79-4 4 1.79 4 4 4Z"
            fill="#fff" /></svg
    ><svg fill="none" viewBox="0 0 24 24" id="icon-user-grey" xmlns="http://www.w3.org/2000/svg">
        <path
            d="M4 22a8 8 0 1 1 16 0h-2a6 6 0 0 0-12 0H4Zm8-9c-3.315 0-6-2.685-6-6s2.685-6 6-6 6 2.685 6 6-2.685 6-6 6Zm0-2c2.21 0 4-1.79 4-4s-1.79-4-4-4-4 1.79-4 4 1.79 4 4 4Z"
            fill="currentColor" /></svg
    ><svg fill="none" viewBox="0 0 24 24" id="icon-user-solid" xmlns="http://www.w3.org/2000/svg">
        <path
            d="M4 22a8 8 0 1 1 16 0H4Zm8-9c-3.315 0-6-2.685-6-6s2.685-6 6-6 6 2.685 6 6-2.685 6-6 6Z"
            fill="#fff" /></svg
    ><svg fill="none" viewBox="0 0 36 36" id="icon-vk" xmlns="http://www.w3.org/2000/svg">
        <rect x=".5" y=".5" width="35" height="35" rx="7.5" stroke="#fff" stroke-opacity=".8" />
        <path
            fill-rule="evenodd"
            clip-rule="evenodd"
            d="M26.486 14.38c.14-.395 0-.682-.614-.682H23.83c-.516 0-.754.251-.892.52 0 0-1.051 2.296-2.518 3.785-.476.43-.694.574-.952.574-.139 0-.317-.144-.317-.538v-3.677c0-.467-.159-.682-.595-.682h-3.212c-.317 0-.515.215-.515.43 0 .45.733.557.813 1.812v2.726c0 .592-.12.7-.377.7-.694 0-2.379-2.314-3.39-4.95-.198-.52-.397-.718-.912-.718H8.9c-.595 0-.694.251-.694.52 0 .485.694 2.924 3.232 6.152 1.685 2.206 4.084 3.39 6.245 3.39 1.308 0 1.467-.269 1.467-.717v-1.668c0-.538.119-.628.535-.628.298 0 .833.143 2.042 1.202 1.388 1.255 1.626 1.83 2.4 1.83h2.041c.595 0 .873-.27.714-.79-.178-.52-.852-1.273-1.725-2.17-.476-.502-1.19-1.058-1.408-1.327-.297-.36-.218-.503 0-.826-.02 0 2.479-3.192 2.736-4.268Z"
            fill="#fff"
            fill-opacity=".8" /></svg
    ><svg fill="none" viewBox="0 0 36 36" id="icon-youtube" xmlns="http://www.w3.org/2000/svg">
        <rect x=".5" y=".5" width="35" height="35" rx="7.5" stroke="#fff" stroke-opacity=".8" />
        <path
            fill-rule="evenodd"
            clip-rule="evenodd"
            d="M24.001 13.05a1.95 1.95 0 0 1 1.358 1.394c.321 1.23.321 3.796.321 3.796s0 2.566-.32 3.796A1.95 1.95 0 0 1 24 23.43c-1.198.33-6 .33-6 .33s-4.804 0-6.002-.33a1.95 1.95 0 0 1-1.358-1.394c-.32-1.23-.32-3.796-.32-3.796s0-2.566.32-3.796A1.95 1.95 0 0 1 12 13.05c1.198-.33 6.001-.33 6.001-.33s4.803 0 6.001.33Zm-7.44 3.03v4.8l3.84-2.4-3.84-2.4Z"
            fill="#fff"
            fill-opacity=".8" />
    </svg>
</svg>
